<?xml version="1.0" encoding="UTF-8"?>
<svg xmlns="http://www.w3.org/2000/svg" style="stroke-dasharray:none; shape-rendering:auto; font-family:'Arial'; text-rendering:auto; fill-opacity:1; color-interpolation:auto; color-rendering:auto; font-size:12; fill:black; stroke:black; image-rendering:auto; stroke-miterlimit:10; stroke-linecap:square; stroke-linejoin:miter; font-style:normal; stroke-width:1; stroke-dashoffset:0; font-weight:normal; stroke-opacity:1;" contentScriptType="text/ecmascript" preserveAspectRatio="xMidYMid meet" zoomAndPan="magnify" version="1.0" contentStyleType="text/css" xml:xlink="http://www.w3.org/1999/xlink" width="963" height="597"><rect x="2" y="135" width="959" height="316" ry="0" rx="0" style="stroke:#000000; fill:#FFFFFF" /><g componentSequence="1"><text x="-293" y="9" transform="rotate(270)" text-anchor="middle" style="font-weight:bold;font-size:10px;stroke:none; fill:#434343"><tspan dy="14" x="-293">Autorizadores</tspan></text></g><rect x="460" y="450" width="503" height="147" ry="0" rx="0" style="stroke:#000000; fill:#82B0B7" /><g componentSequence="3"><text x="-523" y="467" transform="rotate(270)" text-anchor="middle" style="font-weight:bold;font-size:10px;stroke:none; fill:#434343"><tspan dy="14" x="-523">Reprovar</tspan></text></g><rect x="2" y="0" width="959" height="136" ry="0" rx="0" style="stroke:#000000; fill:#FFFFFF" /><g componentSequence="4"><text x="-68" y="9" transform="rotate(270)" text-anchor="middle" style="font-weight:bold;font-size:10px;stroke:none; fill:#434343"><tspan dy="14" x="-68">Solicitação</tspan></text></g><rect x="2" y="450" width="459" height="147" ry="0" rx="0" style="stroke:#000000; fill:#A7FCC0" /><g componentSequence="2"><text x="-523" y="9" transform="rotate(270)" text-anchor="middle" style="font-weight:bold;font-size:10px;stroke:none; fill:#434343"><tspan dy="14" x="-523">Aprovar</tspan></text></g><g sequence="2"><ellipse cx="527" cy="69" rx="17" ry="17" stroke-width="1" style="fill:url(#linearGradient66FF6696FF96B6FFB6_719940333);" stroke="336633" /></g><g sequence="8"><ellipse cx="217" cy="524" rx="17" ry="17" stroke-width="3" style="fill:url(#linearGradientFF6666FF9696FFB6B6_607027648);" stroke="993333" /></g><g sequence="116"><rect x="170" y="8" width="106" height="84" ry="5" rx="5" style="fill:url(#linearGradientF8FBFEEDF5FCDEEDFAD4E7F8E2E5E9_537985437);" stroke="191970" /></g><g componentSequence="116"><text x="223" y="23" text-anchor="middle" style="font-weight:bold;font-size:10px;stroke:none; fill:#333399"><tspan dy="14" x="223">Solicitante -</tspan><tspan dy="14" x="223">Anexar</tspan><tspan dy="14" x="223">documentos</tspan></text></g><g sequence="123"><rect x="720" y="170" width="106" height="84" ry="5" rx="5" style="fill:url(#linearGradientF8FBFEEDF5FCDEEDFAD4E7F8E2E5E9_1695779835);" stroke="191970" /></g><g componentSequence="123"><text x="773" y="185" text-anchor="middle" style="font-weight:bold;font-size:10px;stroke:none; fill:#333399"><tspan dy="14" x="773">Autorizadores -</tspan><tspan dy="14" x="773">Aprovar</tspan><tspan dy="14" x="773">solicitação</tspan></text></g><g sequence="134"><ellipse cx="707" cy="524" rx="17" ry="17" stroke-width="3" style="fill:url(#linearGradientFF6666FF9696FFB6B6_72104886);" stroke="993333" /></g><g sequence="134"><polygon points=" 698 520 703 515 708 520 713 515 718 520 713 525 718 530 713 535 708 530 703 535 698 530 703 525" style="stroke:none; fill:#993333" /></g><g sequence="140"><rect x="720" y="340" width="106" height="70" ry="5" rx="5" style="fill:url(#linearGradientF8FBFEEDF5FCDEEDFAD4E7F8E2E5E9_1413253758);" stroke="191970" /></g><g componentSequence="140"><text x="773" y="355" text-anchor="middle" style="font-weight:bold;font-size:10px;stroke:none; fill:#333399"><tspan dy="14" x="773">Escalar Outro</tspan><tspan dy="14" x="773">Aprovador</tspan></text></g><g sequence="145"><rect x="430" y="160" width="106" height="98" ry="5" rx="5" style="fill:url(#linearGradientF8FBFEEDF5FCDEEDFAD4E7F8E2E5E9_2089378957);" stroke="191970" /></g><g componentSequence="145"><text x="483" y="175" text-anchor="middle" style="font-weight:bold;font-size:10px;stroke:none; fill:#333399"><tspan dy="14" x="483">Gestor Centro</tspan><tspan dy="14" x="483">de Custos -</tspan><tspan dy="14" x="483">Aprovar</tspan><tspan dy="14" x="483">solicitação</tspan></text></g><g sequence="164"><polygon points=" 80 190 110 160 140 190 110 220 80 190" style="fill:url(#linearGradientFAFBFCFFFFCC_87848116);" stroke="000000" /></g><g componentSequence="164"><text x="110" y="230" text-anchor="middle" style="font-weight:bold;font-size:10px;stroke:none; fill:#333399"><tspan dy="14" x="110">Encamin</tspan><tspan dy="14" x="110">hamento</tspan></text></g><g sequence="166"><rect x="240" y="270" width="106" height="70" ry="5" rx="5" style="fill:url(#linearGradientF8FBFEEDF5FCDEEDFAD4E7F8E2E5E9_1615363630);" stroke="191970" /></g><g componentSequence="166"><text x="293" y="285" text-anchor="middle" style="font-weight:bold;font-size:10px;stroke:none; fill:#333399"><tspan dy="14" x="293">GERH - Realizar</tspan><tspan dy="14" x="293">Pré Análise</tspan></text></g><rect x="60" y="470" width="105" height="55" ry="5" rx="5" style="stroke:none; fill:#FFFFE0" /><g componentSequence="26"><text x="70" y="483" text-anchor="left" style="font-weight:bold;font-size:10px;stroke:none; fill:#000000"><tspan dy="14" x="70">Aprovado</tspan></text></g><path style="fill:none; stroke-width:1; stroke:#000000;" d="M80.0 470.0 L60.0 470.0 L60.0 525.0 L80.0 525.0" /><rect x="520" y="470" width="105" height="69" ry="5" rx="5" style="stroke:none; fill:#FFFFE0" /><g componentSequence="30"><text x="530" y="493" text-anchor="left" style="font-weight:bold;font-size:10px;stroke:none; fill:#000000"><tspan dy="14" x="530">Reprovado -</tspan><tspan dy="14" x="530">Cancela</tspan><tspan dy="14" x="530">Movimento</tspan></text></g><path style="fill:none; stroke-width:1; stroke:#000000;" d="M540.0 470.0 L520.0 470.0 L520.0 539.0 L540.0 539.0" /><rect x="610" y="30" width="105" height="69" ry="5" rx="5" style="stroke:none; fill:#FFFFE0" /><g componentSequence="130"><text x="620" y="53" text-anchor="left" style="font-weight:bold;font-size:10px;stroke:none; fill:#000000"><tspan dy="14" x="620">Solicitações</tspan><tspan dy="14" x="620">provenientes</tspan><tspan dy="14" x="620">do Sistema RM</tspan></text></g><path style="fill:none; stroke-width:1; stroke:#000000;" d="M630.0 30.0 L610.0 30.0 L610.0 99.0 L630.0 99.0" /><g componentSequence="105"><text x="403" y="61" style="font-size:10px;font-weight:none;stroke:none; fill:#333399" text-anchor="left" /></g><g componentSequence="126"><text x="503" y="409" style="font-size:10px;font-weight:none;stroke:none; fill:#333399" text-anchor="left" /></g><g componentSequence="143"><text x="482" y="418" style="font-size:10px;font-weight:none;stroke:none; fill:#333399" text-anchor="left" /></g><g componentSequence="155"><text x="783" y="297" style="font-size:10px;font-weight:none;stroke:none; fill:#333399" text-anchor="left" /></g><g componentSequence="162"><text x="913" y="419" style="font-size:10px;font-weight:none;stroke:none; fill:#333399" text-anchor="left" /></g><g componentSequence="165"><text x="295" y="210" style="font-size:10px;font-weight:none;stroke:none; fill:#333399" text-anchor="left" /></g><g componentSequence="167"><text x="200" y="252" style="font-size:10px;font-weight:none;stroke:none; fill:#333399" text-anchor="left" /></g><g componentSequence="168"><text x="398" y="257" style="font-size:10px;font-weight:none;stroke:none; fill:#333399" text-anchor="left" /></g><g componentSequence="169"><text x="120" y="75" style="font-size:10px;font-weight:none;stroke:none; fill:#333399" text-anchor="left" /></g><g componentSequence="170"><text x="450" y="353" style="font-size:10px;font-weight:none;stroke:none; fill:#333399" text-anchor="left" /></g><g componentSequence="171"><text x="638" y="210" style="font-size:10px;font-weight:none;stroke:none; fill:#333399" text-anchor="left" /></g><g componentSequence="172"><text x="920" y="215" style="font-size:10px;font-weight:none;stroke:none; fill:#333399" text-anchor="left" /></g><g componentSequence="173"><text x="917" y="500" style="font-size:10px;font-weight:none;stroke:none; fill:#333399" text-anchor="left" /></g><g componentSequence="27"><text x="192" y="516" style="font-size:10px;font-weight:none;stroke:none; fill:#333399" text-anchor="left" /></g><g componentSequence="31"><text x="667" y="517" style="font-size:10px;font-weight:none;stroke:none; fill:#333399" text-anchor="left" /></g><g componentSequence="131"><text x="587" y="67" style="font-size:10px;font-weight:none;stroke:none; fill:#333399" text-anchor="left" /></g><path style="fill:none; stroke:#000000;stroke-width:1" d="M510.0 68.0 L276.0 53.0" /><polygon style="fill:#000000; stroke:#000000;" points=" 286 59 276 53 286 49 284 54" /><path style="fill:none; stroke:#000000;stroke-dasharray:2" d="M609.0 66.0 L544.0 69.0" /><path style="fill:none; stroke:#000000;stroke-width:1" d="M722.0 254.0 L584.0 371.0 L233.0 518.0" /><polygon style="fill:#000000; stroke:#000000;" points=" 244 519 233 518 240 510 240 515" /><polygon style="fill:#000000; stroke:#000000;" points=" 721 261 707 260" /><path style="fill:none; stroke:#000000;stroke-width:1" d="M719.0 374.0 L578.0 374.0 L233.0 518.0" /><polygon style="fill:#000000; stroke:#000000;" points=" 244 519 233 518 240 510 240 515" /><polygon style="fill:#000000; stroke:#000000;" points=" 714 379 704 369" /><path style="fill:none; stroke:#000000;stroke-dasharray:2" d="M165.0 511.0 L200.0 520.0" /><path style="fill:none; stroke:#000000;stroke-width:1" d="M169.0 50.0 L110.0 50.0 L110.0 159.0" /><polygon style="fill:#000000; stroke:#000000;" points=" 115 149 110 159 105 149 110 151" /><path style="fill:none; stroke:#F00000;stroke-width:1" d="M773.0 254.0 L773.0 339.0" /><polygon style="fill:#F00000; stroke:#F00000;" points=" 778 329 773 339 768 329 773 331" /><polygon style="fill:#F00000; stroke:#F00000;" points=" 768 264 773 254 778 264 773 262" /><path style="fill:none; stroke:#000000;stroke-width:1" d="M826.0 212.0 L903.0 212.0 L903.0 524.0 L725.0 524.0" /><polygon style="fill:#000000; stroke:#000000;" points=" 735 529 725 524 735 519 733 524" /><path style="fill:none; stroke:#000000;stroke-width:1" d="M110.0 262.0 L110.0 353.0 L560.0 353.0 L560.0 212.0 L719.0 212.0" /><polygon style="fill:#000000; stroke:#000000;" points=" 709 207 719 212 709 217 711 212" /><path style="fill:none; stroke:#000000;stroke-width:1" d="M536.0 209.0 L719.0 211.0" /><polygon style="fill:#000000; stroke:#000000;" points=" 709 206 719 211 709 216 711 211" /><path style="fill:none; stroke:#000000;stroke-width:1" d="M494.0 159.0 L497.0 147.0 L910.0 147.0 L910.0 524.0 L725.0 524.0" /><polygon style="fill:#000000; stroke:#000000;" points=" 735 529 725 524 735 519 733 524" /><path style="fill:none; stroke:#000000;stroke-width:1" d="M826.0 375.0 L907.0 375.0 L907.0 524.0 L725.0 524.0" /><polygon style="fill:#000000; stroke:#000000;" points=" 735 529 725 524 735 519 733 524" /><path style="fill:none; stroke:#000000;stroke-dasharray:2" d="M625.0 512.0 L690.0 522.0" /><path style="fill:none; stroke:#000000;stroke-width:1" d="M140.0 210.0 L429.0 209.0" /><polygon style="fill:#000000; stroke:#000000;" points=" 419 204 429 209 419 214 421 209" /><path style="fill:none; stroke:#000000;stroke-width:1" d="M346.0 278.0 L429.0 236.0" /><polygon style="fill:#000000; stroke:#000000;" points=" 418 236 429 236 422 245 422 240" /><path style="fill:none; stroke:#000000;stroke-width:1" d="M140.0 226.0 L239.0 277.0" /><polygon style="fill:#000000; stroke:#000000;" points=" 232 268 239 277 228 277 232 273" /><defs><linearGradient xmlns:xlink="http://www.w3.org/1999/xlink" xlink:href="#linearGradient66FF6696FF96B6FFB6" id="linearGradient66FF6696FF96B6FFB6_719940333" x1="0" y1="52.0" x2="0" y2="87.0" gradientUnits="userSpaceOnUse" xlink:type="simple" xlink:actuate="onLoad" xlink:show="other" /><linearGradient id="linearGradient66FF6696FF96B6FFB6"><stop style="stop-color:#66FF66;stop-opacity:1;" offset="0.0" id="stop66FF66" /><stop style="stop-color:#96FF96;stop-opacity:1;" offset="0.5" id="stop96FF96" /><stop style="stop-color:#B6FFB6;stop-opacity:1;" offset="1.0" id="stopB6FFB6" /></linearGradient><linearGradient xmlns:xlink="http://www.w3.org/1999/xlink" xlink:href="#linearGradientFF6666FF9696FFB6B6" id="linearGradientFF6666FF9696FFB6B6_607027648" x1="0" y1="507.0" x2="0" y2="542.0" gradientUnits="userSpaceOnUse" xlink:type="simple" xlink:actuate="onLoad" xlink:show="other" /><linearGradient id="linearGradientFF6666FF9696FFB6B6"><stop style="stop-color:#FF6666;stop-opacity:1;" offset="0.0" id="stopFF6666" /><stop style="stop-color:#FF9696;stop-opacity:1;" offset="0.5" id="stopFF9696" /><stop style="stop-color:#FFB6B6;stop-opacity:1;" offset="1.0" id="stopFFB6B6" /></linearGradient><linearGradient xmlns:xlink="http://www.w3.org/1999/xlink" xlink:href="#linearGradientF8FBFEEDF5FCDEEDFAD4E7F8E2E5E9" id="linearGradientF8FBFEEDF5FCDEEDFAD4E7F8E2E5E9_537985437" x1="0" y1="8.0" x2="0" y2="114.0" gradientUnits="userSpaceOnUse" xlink:type="simple" xlink:actuate="onLoad" xlink:show="other" /><linearGradient id="linearGradientF8FBFEEDF5FCDEEDFAD4E7F8E2E5E9"><stop style="stop-color:#F8FBFE;stop-opacity:1;" offset="0.0" id="stopF8FBFE" /><stop style="stop-color:#EDF5FC;stop-opacity:1;" offset="0.25" id="stopEDF5FC" /><stop style="stop-color:#DEEDFA;stop-opacity:1;" offset="0.5" id="stopDEEDFA" /><stop style="stop-color:#D4E7F8;stop-opacity:1;" offset="0.75" id="stopD4E7F8" /><stop style="stop-color:#E2E5E9;stop-opacity:1;" offset="1.0" id="stopE2E5E9" /></linearGradient><linearGradient xmlns:xlink="http://www.w3.org/1999/xlink" xlink:href="#linearGradientF8FBFEEDF5FCDEEDFAD4E7F8E2E5E9" id="linearGradientF8FBFEEDF5FCDEEDFAD4E7F8E2E5E9_1695779835" x1="0" y1="170.0" x2="0" y2="276.0" gradientUnits="userSpaceOnUse" xlink:type="simple" xlink:actuate="onLoad" xlink:show="other" /><linearGradient xmlns:xlink="http://www.w3.org/1999/xlink" xlink:href="#linearGradientFF6666FF9696FFB6B6" id="linearGradientFF6666FF9696FFB6B6_72104886" x1="0" y1="507.0" x2="0" y2="542.0" gradientUnits="userSpaceOnUse" xlink:type="simple" xlink:actuate="onLoad" xlink:show="other" /><linearGradient xmlns:xlink="http://www.w3.org/1999/xlink" xlink:href="#linearGradientF8FBFEEDF5FCDEEDFAD4E7F8E2E5E9" id="linearGradientF8FBFEEDF5FCDEEDFAD4E7F8E2E5E9_1413253758" x1="0" y1="340.0" x2="0" y2="446.0" gradientUnits="userSpaceOnUse" xlink:type="simple" xlink:actuate="onLoad" xlink:show="other" /><linearGradient xmlns:xlink="http://www.w3.org/1999/xlink" xlink:href="#linearGradientF8FBFEEDF5FCDEEDFAD4E7F8E2E5E9" id="linearGradientF8FBFEEDF5FCDEEDFAD4E7F8E2E5E9_2089378957" x1="0" y1="160.0" x2="0" y2="266.0" gradientUnits="userSpaceOnUse" xlink:type="simple" xlink:actuate="onLoad" xlink:show="other" /><linearGradient xmlns:xlink="http://www.w3.org/1999/xlink" xlink:href="#linearGradientFAFBFCFFFFCC" id="linearGradientFAFBFCFFFFCC_87848116" x1="0" y1="160.0" x2="0" y2="220.0" gradientUnits="userSpaceOnUse" xlink:type="simple" xlink:actuate="onLoad" xlink:show="other" /><linearGradient id="linearGradientFAFBFCFFFFCC"><stop style="stop-color:#FAFBFC;stop-opacity:1;" offset="0.0" id="stopFAFBFC" /><stop style="stop-color:#FFFFCC;stop-opacity:1;" offset="1.0" id="stopFFFFCC" /></linearGradient><linearGradient xmlns:xlink="http://www.w3.org/1999/xlink" xlink:href="#linearGradientF8FBFEEDF5FCDEEDFAD4E7F8E2E5E9" id="linearGradientF8FBFEEDF5FCDEEDFAD4E7F8E2E5E9_1615363630" x1="0" y1="270.0" x2="0" y2="376.0" gradientUnits="userSpaceOnUse" xlink:type="simple" xlink:actuate="onLoad" xlink:show="other" /></defs></svg>
