<?xml version="1.0" encoding="UTF-8"?>
<svg xmlns="http://www.w3.org/2000/svg" style="stroke-dasharray:none; shape-rendering:auto; font-family:'Arial'; text-rendering:auto; fill-opacity:1; color-interpolation:auto; color-rendering:auto; font-size:12; fill:black; stroke:black; image-rendering:auto; stroke-miterlimit:10; stroke-linecap:square; stroke-linejoin:miter; font-style:normal; stroke-width:1; stroke-dashoffset:0; font-weight:normal; stroke-opacity:1;" contentScriptType="text/ecmascript" preserveAspectRatio="xMidYMid meet" zoomAndPan="magnify" version="1.0" contentStyleType="text/css" xml:xlink="http://www.w3.org/1999/xlink" width="963" height="908"><rect x="2" y="367" width="959" height="395" ry="0" rx="0" style="stroke:#000000; fill:#FFFFFF" /><g componentSequence="1"><text x="-564" y="9" transform="rotate(270)" text-anchor="middle" style="font-weight:bold;font-size:10px;stroke:none; fill:#434343"><tspan dy="14" x="-564">Autorizadores</tspan></text></g><rect x="2" y="761" width="459" height="147" ry="0" rx="0" style="stroke:#000000; fill:#A7FCC0" /><g componentSequence="5"><text x="-834" y="9" transform="rotate(270)" text-anchor="middle" style="font-weight:bold;font-size:10px;stroke:none; fill:#434343"><tspan dy="14" x="-834">Aprovar</tspan></text></g><rect x="460" y="761" width="503" height="147" ry="0" rx="0" style="stroke:#000000; fill:#82B0B7" /><g componentSequence="3"><text x="-834" y="467" transform="rotate(270)" text-anchor="middle" style="font-weight:bold;font-size:10px;stroke:none; fill:#434343"><tspan dy="14" x="-834">Reprovar</tspan></text></g><rect x="2" y="0" width="959" height="136" ry="0" rx="0" style="stroke:#000000; fill:#FFFFFF" /><g componentSequence="4"><text x="-68" y="9" transform="rotate(270)" text-anchor="middle" style="font-weight:bold;font-size:10px;stroke:none; fill:#434343"><tspan dy="14" x="-68">Solicitação</tspan></text></g><rect x="2" y="135" width="959" height="232" ry="0" rx="0" style="stroke:#000000; fill:#FFFFFF" /><g componentSequence="2"><text x="-251" y="9" transform="rotate(270)" text-anchor="middle" style="font-weight:bold;font-size:10px;stroke:none; fill:#434343"><tspan dy="14" x="-251">Gestor Centro de Custo</tspan></text></g><g sequence="2"><ellipse cx="527" cy="69" rx="17" ry="17" stroke-width="1" style="fill:url(#linearGradient66FF6696FF96B6FFB6_1955042191);" stroke="336633" /></g><g sequence="8"><ellipse cx="197" cy="847" rx="17" ry="17" stroke-width="3" style="fill:url(#linearGradientFF6666FF9696FFB6B6_2051040111);" stroke="993333" /></g><g sequence="116"><rect x="170" y="8" width="106" height="84" ry="5" rx="5" style="fill:url(#linearGradientF8FBFEEDF5FCDEEDFAD4E7F8E2E5E9_2122316031);" stroke="191970" /></g><g componentSequence="116"><text x="223" y="23" text-anchor="middle" style="font-weight:bold;font-size:10px;stroke:none; fill:#333399"><tspan dy="14" x="223">Solicitante -</tspan><tspan dy="14" x="223">Anexar</tspan><tspan dy="14" x="223">documentos</tspan></text></g><g sequence="123"><rect x="410" y="440" width="106" height="84" ry="5" rx="5" style="fill:url(#linearGradientF8FBFEEDF5FCDEEDFAD4E7F8E2E5E9_998074708);" stroke="191970" /></g><g componentSequence="123"><text x="463" y="455" text-anchor="middle" style="font-weight:bold;font-size:10px;stroke:none; fill:#333399"><tspan dy="14" x="463">Autorizadores -</tspan><tspan dy="14" x="463">Aprovar</tspan><tspan dy="14" x="463">solicitação</tspan></text></g><g sequence="134"><ellipse cx="577" cy="817" rx="17" ry="17" stroke-width="3" style="fill:url(#linearGradientFF6666FF9696FFB6B6_1932430943);" stroke="993333" /></g><g sequence="134"><polygon points=" 568 813 573 808 578 813 583 808 588 813 583 818 588 823 583 828 578 823 573 828 568 823 573 818" style="stroke:none; fill:#993333" /></g><g sequence="135"><rect x="600" y="600" width="106" height="84" ry="5" rx="5" style="fill:url(#linearGradientF8FBFEEDF5FCDEEDFAD4E7F8E2E5E9_177000526);" stroke="191970" /></g><g componentSequence="135"><text x="653" y="615" text-anchor="middle" style="font-weight:bold;font-size:10px;stroke:none; fill:#333399"><tspan dy="14" x="653">Presidência -</tspan><tspan dy="14" x="653">Aprovar</tspan><tspan dy="14" x="653">solicitação</tspan></text></g><g sequence="140"><rect x="120" y="570" width="106" height="70" ry="5" rx="5" style="fill:url(#linearGradientF8FBFEEDF5FCDEEDFAD4E7F8E2E5E9_188049888);" stroke="191970" /></g><g componentSequence="140"><text x="173" y="585" text-anchor="middle" style="font-weight:bold;font-size:10px;stroke:none; fill:#333399"><tspan dy="14" x="173">Escalar Outro</tspan><tspan dy="14" x="173">Aprovador</tspan></text></g><g sequence="145"><rect x="430" y="160" width="106" height="98" ry="5" rx="5" style="fill:url(#linearGradientF8FBFEEDF5FCDEEDFAD4E7F8E2E5E9_1532139035);" stroke="191970" /></g><g componentSequence="145"><text x="483" y="175" text-anchor="middle" style="font-weight:bold;font-size:10px;stroke:none; fill:#333399"><tspan dy="14" x="483">Gestor Centro</tspan><tspan dy="14" x="483">de Custos -</tspan><tspan dy="14" x="483">Aprovar</tspan><tspan dy="14" x="483">solicitação</tspan></text></g><g sequence="147"><polygon points=" 590 250 620 220 650 250 620 280 590 250" style="fill:url(#linearGradientFAFBFCFFFFCC_1552529240);" stroke="000000" /></g><g componentSequence="147"><text x="620" y="290" text-anchor="middle" style="font-weight:bold;font-size:10px;stroke:none; fill:#333399"><tspan dy="14" x="620">Aprovar</tspan><tspan dy="14" x="620">-</tspan><tspan dy="14" x="620">Segu...</tspan></text></g><g sequence="149"><rect x="600" y="441" width="106" height="70" ry="5" rx="5" style="fill:url(#linearGradientF8FBFEEDF5FCDEEDFAD4E7F8E2E5E9_820707879);" stroke="191970" /></g><g componentSequence="149"><text x="653" y="456" text-anchor="middle" style="font-weight:bold;font-size:10px;stroke:none; fill:#333399"><tspan dy="14" x="653">VPF - Aprovar</tspan><tspan dy="14" x="653">Solicitação</tspan></text></g><g sequence="164"><polygon points=" 80 200 110 170 140 200 110 230 80 200" style="fill:url(#linearGradientFAFBFCFFFFCC_271648691);" stroke="000000" /></g><g componentSequence="164"><text x="110" y="240" text-anchor="middle" style="font-weight:bold;font-size:10px;stroke:none; fill:#333399"><tspan dy="14" x="110">Encamin</tspan><tspan dy="14" x="110">hamento</tspan></text></g><g sequence="166"><rect x="210" y="270" width="106" height="70" ry="5" rx="5" style="fill:url(#linearGradientF8FBFEEDF5FCDEEDFAD4E7F8E2E5E9_1595714016);" stroke="191970" /></g><g componentSequence="166"><text x="263" y="285" text-anchor="middle" style="font-weight:bold;font-size:10px;stroke:none; fill:#333399"><tspan dy="14" x="263">Realizar Pré</tspan><tspan dy="14" x="263">Análise</tspan></text></g><rect x="40" y="820" width="105" height="55" ry="5" rx="5" style="stroke:none; fill:#FFFFE0" /><g componentSequence="26"><text x="50" y="833" text-anchor="left" style="font-weight:bold;font-size:10px;stroke:none; fill:#000000"><tspan dy="14" x="50">Aprovado</tspan></text></g><path style="fill:none; stroke-width:1; stroke:#000000;" d="M60.0 820.0 L40.0 820.0 L40.0 875.0 L60.0 875.0" /><rect x="650" y="835" width="105" height="69" ry="5" rx="5" style="stroke:none; fill:#FFFFE0" /><g componentSequence="30"><text x="660" y="858" text-anchor="left" style="font-weight:bold;font-size:10px;stroke:none; fill:#000000"><tspan dy="14" x="660">Reprovado -</tspan><tspan dy="14" x="660">Cancela</tspan><tspan dy="14" x="660">Movimento</tspan></text></g><path style="fill:none; stroke-width:1; stroke:#000000;" d="M670.0 835.0 L650.0 835.0 L650.0 904.0 L670.0 904.0" /><rect x="610" y="30" width="105" height="69" ry="5" rx="5" style="stroke:none; fill:#FFFFE0" /><g componentSequence="130"><text x="620" y="53" text-anchor="left" style="font-weight:bold;font-size:10px;stroke:none; fill:#000000"><tspan dy="14" x="620">Solicitações</tspan><tspan dy="14" x="620">provenientes</tspan><tspan dy="14" x="620">do Sistema RM</tspan></text></g><path style="fill:none; stroke-width:1; stroke:#000000;" d="M630.0 30.0 L610.0 30.0 L610.0 99.0 L630.0 99.0" /><g componentSequence="105"><text x="403" y="61" style="font-size:10px;font-weight:none;stroke:none; fill:#333399" text-anchor="left" /></g><g componentSequence="126"><text x="74" y="508" style="font-size:10px;font-weight:none;stroke:none; fill:#333399" text-anchor="left" /></g><g componentSequence="137"><text x="417" y="753" style="font-size:10px;font-weight:none;stroke:none; fill:#333399" text-anchor="left" /></g><g componentSequence="138"><text x="620" y="742" style="font-size:10px;font-weight:none;stroke:none; fill:#333399" text-anchor="left"><tspan dy="14" x="620">Cancelar Solicitação</tspan></text></g><g componentSequence="142"><text x="453" y="621" style="font-size:10px;font-weight:none;stroke:none; fill:#333399" text-anchor="left"><tspan dy="14" x="453">Cancelar Solicitação</tspan></text></g><g componentSequence="143"><text x="196" y="735" style="font-size:10px;font-weight:none;stroke:none; fill:#333399" text-anchor="left" /></g><g componentSequence="148"><text x="573" y="249" style="font-size:10px;font-weight:none;stroke:none; fill:#333399" text-anchor="left" /></g><g componentSequence="150"><text x="648" y="388" style="font-size:10px;font-weight:none;stroke:none; fill:#333399" text-anchor="left" /></g><g componentSequence="153"><text x="552" y="378" style="font-size:10px;font-weight:none;stroke:none; fill:#333399" text-anchor="left" /></g><g componentSequence="154"><text x="131" y="397" style="font-size:10px;font-weight:none;stroke:none; fill:#333399" text-anchor="left" /></g><g componentSequence="155"><text x="328" y="543" style="font-size:10px;font-weight:none;stroke:none; fill:#333399" text-anchor="left" /></g><g componentSequence="156"><text x="238" y="140" style="font-size:10px;font-weight:none;stroke:none; fill:#333399" text-anchor="left" /></g><g componentSequence="157"><text x="926" y="449" style="font-size:10px;font-weight:none;stroke:none; fill:#333399" text-anchor="left" /></g><g componentSequence="162"><text x="552" y="657" style="font-size:10px;font-weight:none;stroke:none; fill:#333399" text-anchor="left" /></g><g componentSequence="163"><text x="871" y="654" style="font-size:10px;font-weight:none;stroke:none; fill:#333399" text-anchor="left" /></g><g componentSequence="165"><text x="295" y="215" style="font-size:10px;font-weight:none;stroke:none; fill:#333399" text-anchor="left" /></g><g componentSequence="167"><text x="185" y="256" style="font-size:10px;font-weight:none;stroke:none; fill:#333399" text-anchor="left" /></g><g componentSequence="168"><text x="383" y="257" style="font-size:10px;font-weight:none;stroke:none; fill:#333399" text-anchor="left" /></g><g componentSequence="169"><text x="231" y="183" style="font-size:10px;font-weight:none;stroke:none; fill:#333399" text-anchor="left" /></g><g componentSequence="170"><text x="663" y="555" style="font-size:10px;font-weight:none;stroke:none; fill:#333399" text-anchor="left" /></g><g componentSequence="27"><text x="172" y="847" style="font-size:10px;font-weight:none;stroke:none; fill:#333399" text-anchor="left" /></g><g componentSequence="31"><text x="632" y="836" style="font-size:10px;font-weight:none;stroke:none; fill:#333399" text-anchor="left" /></g><g componentSequence="131"><text x="587" y="67" style="font-size:10px;font-weight:none;stroke:none; fill:#333399" text-anchor="left" /></g><path style="fill:none; stroke:#000000;stroke-width:1" d="M510.0 68.0 L276.0 53.0" /><polygon style="fill:#000000; stroke:#000000;" points=" 286 59 276 53 286 49 284 54" /><path style="fill:none; stroke:#000000;stroke-dasharray:2" d="M609.0 66.0 L544.0 69.0" /><path style="fill:none; stroke:#000000;stroke-width:1" d="M409.0 484.0 L64.0 501.0 L64.0 594.0 L189.0 832.0" /><polygon style="fill:#000000; stroke:#000000;" points=" 189 821 189 832 180 825 185 825" /><polygon style="fill:#000000; stroke:#000000;" points=" 404 489 394 480" /><path style="fill:none; stroke:#000000;stroke-width:1" d="M599.0 666.0 L213.0 840.0" /><polygon style="fill:#000000; stroke:#000000;" points=" 224 840 213 840 220 831 220 837" /><polygon style="fill:#000000; stroke:#000000;" points=" 596 673 583 668" /><path style="fill:none; stroke:#000000;stroke-width:1" d="M176.0 640.0 L196.0 830.0" /><polygon style="fill:#000000; stroke:#000000;" points=" 200 820 196 830 190 821 195 822" /><polygon style="fill:#000000; stroke:#000000;" points=" 181 644 173 655" /><path style="fill:none; stroke:#000000;stroke-width:1" d="M599.0 485.0 L565.0 491.0 L565.0 397.0 L32.0 397.0 L32.0 632.0 L187.0 833.0" /><polygon style="fill:#000000; stroke:#000000;" points=" 185 822 187 833 177 828 182 827" /><polygon style="fill:#000000; stroke:#000000;" points=" 595 491 583 483" /><path style="fill:none; stroke:#000000;stroke-dasharray:2" d="M145.0 847.0 L179.0 847.0" /><path style="fill:none; stroke:#009600;stroke-width:1" d="M169.0 74.0 L100.0 105.0 L429.0 194.0" /><polygon style="fill:#009600; stroke:#009600;" points=" 421 187 429 194 418 196 421 192" /><path style="fill:none; stroke:#000000;stroke-width:1" d="M222.0 92.0 L221.0 191.0 L140.0 212.0" /><polygon style="fill:#000000; stroke:#000000;" points=" 151 214 140 212 148 205 148 210" /><path style="fill:none; stroke:#F00000;stroke-width:1" d="M409.0 504.0 L226.0 582.0" /><polygon style="fill:#F00000; stroke:#F00000;" points=" 237 583 226 582 233 573 233 579" /><polygon style="fill:#F00000; stroke:#F00000;" points=" 398 503 409 504 402 513 402 507" /><path style="fill:none; stroke:#000000;stroke-width:1" d="M491.0 524.0 L524.0 572.0 L574.0 800.0" /><polygon style="fill:#000000; stroke:#000000;" points=" 577 789 574 800 567 791 572 792" /><path style="fill:none; stroke:#000000;stroke-width:1" d="M589.0 317.0 L495.0 439.0" /><polygon style="fill:#000000; stroke:#000000;" points=" 505 434 495 439 497 428 500 433" /><path style="fill:none; stroke:#000000;stroke-width:1" d="M634.0 684.0 L584.0 801.0" /><polygon style="fill:#000000; stroke:#000000;" points=" 593 794 584 801 583 790 587 794" /><path style="fill:none; stroke:#000000;stroke-width:1" d="M226.0 608.0 L448.0 621.0 L568.0 802.0" /><polygon style="fill:#000000; stroke:#000000;" points=" 567 791 568 802 558 796 564 795" /><path style="fill:none; stroke:#000000;stroke-width:1" d="M536.0 200.0 L580.0 193.0 L629.0 193.0 L725.0 193.0 L916.0 193.0 L916.0 361.0 L916.0 759.0 L594.0 814.0" /><polygon style="fill:#000000; stroke:#000000;" points=" 605 817 594 814 603 807 602 813" /><path style="fill:none; stroke:#000000;stroke-width:1" d="M706.0 480.0 L861.0 493.0 L861.0 673.0 L593.0 809.0" /><polygon style="fill:#000000; stroke:#000000;" points=" 604 809 593 809 600 800 600 805" /><path style="fill:none; stroke:#000000;stroke-dasharray:2" d="M649.0 847.0 L593.0 823.0" /><path style="fill:none; stroke:#000000;stroke-width:1" d="M653.0 511.0 L653.0 599.0" /><polygon style="fill:#000000; stroke:#000000;" points=" 658 589 653 599 648 589 653 591" /><path style="fill:none; stroke:#000000;stroke-width:1" d="M536.0 236.0 L589.0 262.0" /><polygon style="fill:#000000; stroke:#000000;" points=" 582 253 589 262 578 262 582 258" /><polygon style="fill:#000000; stroke:#000000;" points=" 543 234 547 247" /><path style="fill:none; stroke:#000000;stroke-width:1" d="M140.0 220.0 L429.0 210.0" /><polygon style="fill:#000000; stroke:#000000;" points=" 419 205 429 210 419 215 421 210" /><path style="fill:none; stroke:#000000;stroke-width:1" d="M316.0 281.0 L429.0 232.0" /><polygon style="fill:#000000; stroke:#000000;" points=" 418 231 429 232 422 241 422 235" /><path style="fill:none; stroke:#000000;stroke-width:1" d="M629.0 336.0 L647.0 440.0" /><polygon style="fill:#000000; stroke:#000000;" points=" 650 429 647 440 640 431 646 432" /><path style="fill:none; stroke:#000000;stroke-width:1" d="M140.0 237.0 L209.0 275.0" /><polygon style="fill:#000000; stroke:#000000;" points=" 203 266 209 275 198 275 202 271" /><defs><linearGradient xmlns:xlink="http://www.w3.org/1999/xlink" xlink:href="#linearGradient66FF6696FF96B6FFB6" id="linearGradient66FF6696FF96B6FFB6_1955042191" x1="0" y1="52.0" x2="0" y2="87.0" gradientUnits="userSpaceOnUse" xlink:type="simple" xlink:actuate="onLoad" xlink:show="other" /><linearGradient id="linearGradient66FF6696FF96B6FFB6"><stop style="stop-color:#66FF66;stop-opacity:1;" offset="0.0" id="stop66FF66" /><stop style="stop-color:#96FF96;stop-opacity:1;" offset="0.5" id="stop96FF96" /><stop style="stop-color:#B6FFB6;stop-opacity:1;" offset="1.0" id="stopB6FFB6" /></linearGradient><linearGradient xmlns:xlink="http://www.w3.org/1999/xlink" xlink:href="#linearGradientFF6666FF9696FFB6B6" id="linearGradientFF6666FF9696FFB6B6_2051040111" x1="0" y1="830.0" x2="0" y2="865.0" gradientUnits="userSpaceOnUse" xlink:type="simple" xlink:actuate="onLoad" xlink:show="other" /><linearGradient id="linearGradientFF6666FF9696FFB6B6"><stop style="stop-color:#FF6666;stop-opacity:1;" offset="0.0" id="stopFF6666" /><stop style="stop-color:#FF9696;stop-opacity:1;" offset="0.5" id="stopFF9696" /><stop style="stop-color:#FFB6B6;stop-opacity:1;" offset="1.0" id="stopFFB6B6" /></linearGradient><linearGradient xmlns:xlink="http://www.w3.org/1999/xlink" xlink:href="#linearGradientF8FBFEEDF5FCDEEDFAD4E7F8E2E5E9" id="linearGradientF8FBFEEDF5FCDEEDFAD4E7F8E2E5E9_2122316031" x1="0" y1="8.0" x2="0" y2="114.0" gradientUnits="userSpaceOnUse" xlink:type="simple" xlink:actuate="onLoad" xlink:show="other" /><linearGradient id="linearGradientF8FBFEEDF5FCDEEDFAD4E7F8E2E5E9"><stop style="stop-color:#F8FBFE;stop-opacity:1;" offset="0.0" id="stopF8FBFE" /><stop style="stop-color:#EDF5FC;stop-opacity:1;" offset="0.25" id="stopEDF5FC" /><stop style="stop-color:#DEEDFA;stop-opacity:1;" offset="0.5" id="stopDEEDFA" /><stop style="stop-color:#D4E7F8;stop-opacity:1;" offset="0.75" id="stopD4E7F8" /><stop style="stop-color:#E2E5E9;stop-opacity:1;" offset="1.0" id="stopE2E5E9" /></linearGradient><linearGradient xmlns:xlink="http://www.w3.org/1999/xlink" xlink:href="#linearGradientF8FBFEEDF5FCDEEDFAD4E7F8E2E5E9" id="linearGradientF8FBFEEDF5FCDEEDFAD4E7F8E2E5E9_998074708" x1="0" y1="440.0" x2="0" y2="546.0" gradientUnits="userSpaceOnUse" xlink:type="simple" xlink:actuate="onLoad" xlink:show="other" /><linearGradient xmlns:xlink="http://www.w3.org/1999/xlink" xlink:href="#linearGradientFF6666FF9696FFB6B6" id="linearGradientFF6666FF9696FFB6B6_1932430943" x1="0" y1="800.0" x2="0" y2="835.0" gradientUnits="userSpaceOnUse" xlink:type="simple" xlink:actuate="onLoad" xlink:show="other" /><linearGradient xmlns:xlink="http://www.w3.org/1999/xlink" xlink:href="#linearGradientF8FBFEEDF5FCDEEDFAD4E7F8E2E5E9" id="linearGradientF8FBFEEDF5FCDEEDFAD4E7F8E2E5E9_177000526" x1="0" y1="600.0" x2="0" y2="706.0" gradientUnits="userSpaceOnUse" xlink:type="simple" xlink:actuate="onLoad" xlink:show="other" /><linearGradient xmlns:xlink="http://www.w3.org/1999/xlink" xlink:href="#linearGradientF8FBFEEDF5FCDEEDFAD4E7F8E2E5E9" id="linearGradientF8FBFEEDF5FCDEEDFAD4E7F8E2E5E9_188049888" x1="0" y1="570.0" x2="0" y2="676.0" gradientUnits="userSpaceOnUse" xlink:type="simple" xlink:actuate="onLoad" xlink:show="other" /><linearGradient xmlns:xlink="http://www.w3.org/1999/xlink" xlink:href="#linearGradientF8FBFEEDF5FCDEEDFAD4E7F8E2E5E9" id="linearGradientF8FBFEEDF5FCDEEDFAD4E7F8E2E5E9_1532139035" x1="0" y1="160.0" x2="0" y2="266.0" gradientUnits="userSpaceOnUse" xlink:type="simple" xlink:actuate="onLoad" xlink:show="other" /><linearGradient xmlns:xlink="http://www.w3.org/1999/xlink" xlink:href="#linearGradientFAFBFCFFFFCC" id="linearGradientFAFBFCFFFFCC_1552529240" x1="0" y1="220.0" x2="0" y2="280.0" gradientUnits="userSpaceOnUse" xlink:type="simple" xlink:actuate="onLoad" xlink:show="other" /><linearGradient id="linearGradientFAFBFCFFFFCC"><stop style="stop-color:#FAFBFC;stop-opacity:1;" offset="0.0" id="stopFAFBFC" /><stop style="stop-color:#FFFFCC;stop-opacity:1;" offset="1.0" id="stopFFFFCC" /></linearGradient><linearGradient xmlns:xlink="http://www.w3.org/1999/xlink" xlink:href="#linearGradientF8FBFEEDF5FCDEEDFAD4E7F8E2E5E9" id="linearGradientF8FBFEEDF5FCDEEDFAD4E7F8E2E5E9_820707879" x1="0" y1="441.0" x2="0" y2="547.0" gradientUnits="userSpaceOnUse" xlink:type="simple" xlink:actuate="onLoad" xlink:show="other" /><linearGradient xmlns:xlink="http://www.w3.org/1999/xlink" xlink:href="#linearGradientFAFBFCFFFFCC" id="linearGradientFAFBFCFFFFCC_271648691" x1="0" y1="170.0" x2="0" y2="230.0" gradientUnits="userSpaceOnUse" xlink:type="simple" xlink:actuate="onLoad" xlink:show="other" /><linearGradient xmlns:xlink="http://www.w3.org/1999/xlink" xlink:href="#linearGradientF8FBFEEDF5FCDEEDFAD4E7F8E2E5E9" id="linearGradientF8FBFEEDF5FCDEEDFAD4E7F8E2E5E9_1595714016" x1="0" y1="270.0" x2="0" y2="376.0" gradientUnits="userSpaceOnUse" xlink:type="simple" xlink:actuate="onLoad" xlink:show="other" /></defs></svg>
